<?xml version="1.0" standalone="no"?>
<!DOCTYPE svg PUBLIC "-//W3C//DTD SVG 20010904//EN"
 "http://www.w3.org/TR/2001/REC-SVG-20010904/DTD/svg10.dtd">
<svg version="1.0" xmlns="http://www.w3.org/2000/svg"
 width="713.000000pt" height="713.000000pt" viewBox="0 0 713.000000 713.000000"
 preserveAspectRatio="xMidYMid meet">

<g transform="translate(0.000000,713.000000) scale(0.100000,-0.100000)"
fill="#000000" stroke="none">
<path d="M4220 6690 c-4 -3 -13 -34 -18 -70 -11 -65 -26 -146 -43 -230 -5 -25
-13 -70 -18 -100 -5 -30 -19 -107 -31 -170 -11 -63 -25 -135 -29 -160 -51
-277 -74 -397 -81 -414 -13 -30 -12 93 0 244 24 282 59 813 55 820 -6 9 -94
-6 -159 -27 l-48 -15 3 -198 c2 -109 1 -201 -2 -205 -4 -3 -13 11 -22 32 -8
21 -31 73 -51 115 -20 42 -36 81 -36 86 0 4 -6 16 -13 27 -13 17 -16 17 -68
-11 -30 -16 -56 -31 -59 -35 -3 -3 -27 -21 -55 -39 -68 -46 -219 -198 -287
-290 -102 -137 -187 -289 -256 -455 -38 -90 -47 -103 -87 -128 -91 -58 -134
-137 -121 -221 47 -289 553 -576 1271 -721 169 -34 173 -37 105 -68 -60 -27
-358 -162 -457 -207 -35 -16 -63 -34 -63 -40 0 -9 83 -130 248 -358 34 -48 90
-127 124 -177 34 -49 66 -94 70 -100 14 -17 162 -227 208 -295 24 -36 46 -67
50 -70 3 -3 17 -21 30 -40 13 -19 27 -37 30 -40 3 -3 27 -39 55 -80 27 -41 52
-77 55 -80 10 -10 127 -176 149 -212 29 -49 44 -49 35 0 -8 45 -41 213 -60
302 -7 36 -25 128 -39 205 -14 77 -32 169 -40 205 -8 36 -24 117 -36 180 -11
63 -34 180 -50 260 -16 80 -38 192 -49 250 -10 58 -28 148 -39 200 -11 52 -16
99 -12 103 4 4 65 3 136 -3 70 -5 194 -10 275 -10 l146 0 37 -227 c21 -126 42
-266 47 -313 6 -47 17 -119 25 -160 8 -41 30 -185 50 -320 19 -135 40 -267 45
-295 5 -27 14 -79 19 -115 15 -97 72 -468 81 -525 16 -93 30 -190 36 -237 l7
-47 49 20 c27 10 77 32 111 48 75 35 246 113 462 211 283 128 299 136 357 161
40 16 58 30 58 42 0 10 -17 55 -39 100 -21 45 -49 105 -61 132 -118 262 -177
391 -205 450 -18 39 -59 129 -91 200 -31 72 -71 162 -89 200 -18 39 -56 122
-85 185 -28 63 -71 159 -96 213 -24 53 -65 143 -90 200 -26 56 -64 140 -86
186 l-39 83 21 51 c28 65 25 177 -8 251 -20 43 -22 66 -22 208 0 365 -64 631
-204 841 -44 66 -125 147 -140 140 -6 -2 -49 -49 -96 -104 -131 -152 -131
-147 -11 104 33 70 61 133 61 140 0 34 -162 151 -180 130 -4 -4 -41 -111 -83
-238 -170 -512 -247 -736 -257 -752 -10 -16 -11 -16 -5 2 4 11 9 36 12 55 4
33 22 110 138 590 25 107 55 233 66 280 11 47 29 119 39 161 11 41 20 78 20
82 0 9 -152 53 -270 77 -105 22 -284 40 -300 30z m-1148 -1419 c54 -47 168
-120 246 -158 39 -19 72 -38 72 -43 0 -4 -8 -18 -19 -31 l-18 -23 -53 22 c-84
35 -177 108 -231 181 -27 36 -49 69 -49 74 0 15 20 6 52 -22z m573 -292 c150
-59 321 -107 521 -148 44 -9 164 -23 414 -48 67 -7 75 -10 78 -30 6 -38 -21
-42 -198 -27 -278 23 -454 57 -731 140 -190 56 -209 66 -209 103 0 27 10 38
35 40 6 1 46 -13 90 -30z m1243 -231 c7 -7 12 -23 12 -36 0 -20 -4 -23 -31
-20 -35 3 -56 26 -46 52 7 19 48 21 65 4z"/>
<path d="M788 4733 l-48 -4 0 -1504 0 -1505 23 -5 c12 -3 63 -5 112 -3 l90 3
3 1508 c2 1430 1 1507 -15 1508 -89 4 -125 5 -165 2z"/>
<path d="M1623 4732 c-24 -2 -43 -5 -43 -8 0 -7 75 -171 256 -562 19 -40 34
-74 34 -76 0 -2 22 -51 49 -108 54 -116 76 -163 151 -328 29 -63 61 -133 71
-154 11 -22 19 -46 19 -53 0 -7 5 -13 10 -13 6 0 10 -5 10 -12 0 -6 13 -38 29
-72 15 -34 45 -98 66 -143 21 -45 41 -80 45 -78 7 5 2 1596 -5 1603 -5 5 -631
8 -692 4z"/>
<path d="M3022 4732 l-92 -3 2 -1507 3 -1507 193 -3 c149 -2 194 0 197 10 3 7
6 289 7 627 2 440 6 615 14 618 6 2 21 -20 34 -49 21 -51 107 -239 155 -343
13 -27 33 -72 45 -100 12 -27 37 -81 55 -120 18 -38 54 -117 80 -175 26 -58
60 -132 75 -165 15 -33 49 -107 75 -165 26 -58 60 -133 76 -167 16 -35 34 -63
40 -63 11 0 81 31 279 123 41 19 147 68 235 107 88 40 163 75 167 79 4 4 -20
43 -55 86 -64 81 -189 243 -262 340 -22 29 -105 136 -185 239 -80 103 -156
201 -170 219 -14 18 -83 109 -155 201 -71 93 -181 234 -242 315 -62 80 -137
178 -167 216 -257 330 -326 421 -326 432 0 5 33 24 73 42 157 72 157 72 157
105 2 250 0 600 -4 603 -5 6 -189 9 -304 5z"/>
<path d="M1571 2548 c1 -425 4 -786 8 -803 l6 -30 345 -3 c190 -1 355 0 367 3
20 5 20 7 8 32 -7 16 -37 80 -65 143 -29 63 -65 142 -80 175 -90 194 -154 335
-290 635 -83 184 -167 367 -185 405 -18 39 -47 103 -65 143 -18 39 -37 72 -41
72 -5 0 -8 -348 -8 -772z"/>
<path d="M833 1369 c-186 -73 -203 -329 -28 -426 41 -23 62 -28 115 -27 69 0
141 26 174 63 15 17 15 20 -4 44 l-21 26 -35 -24 c-68 -46 -158 -46 -218 0
-39 30 -56 69 -56 131 0 86 74 154 168 154 41 0 112 -26 112 -42 0 -16 37 -8
55 12 17 19 17 21 0 40 -53 59 -178 83 -262 49z"/>
<path d="M1354 1379 c-93 -21 -164 -120 -164 -230 0 -137 93 -233 225 -232
142 1 235 93 235 232 0 78 -20 123 -77 177 -34 32 -56 44 -100 53 -63 12 -62
12 -119 0z m147 -92 c48 -31 83 -105 74 -155 -14 -87 -75 -142 -158 -142 -56
0 -108 29 -133 76 -12 23 -15 48 -12 99 4 66 6 70 47 107 39 34 49 38 96 38
37 0 62 -6 86 -23z"/>
<path d="M2299 1381 c-65 -15 -101 -73 -84 -138 4 -16 42 -62 91 -108 46 -45
84 -88 84 -97 0 -49 -71 -63 -117 -24 -26 22 -30 23 -55 10 -35 -18 -34 -21 1
-61 78 -89 241 -43 241 68 0 57 -11 74 -103 161 -71 66 -80 79 -71 95 15 24
61 29 84 8 20 -18 50 -14 70 10 17 20 -2 42 -55 66 -43 20 -46 20 -86 10z"/>
<path d="M3775 1381 c-67 -17 -116 -56 -160 -126 -15 -23 -19 -49 -19 -105 0
-68 3 -80 33 -125 18 -28 48 -60 67 -73 73 -48 182 -51 260 -6 64 36 71 50 44
79 l-23 25 -36 -27 c-74 -57 -201 -37 -246 40 -26 43 -25 132 0 175 45 76 147
95 236 45 l49 -28 22 22 c21 22 21 23 4 42 -44 48 -163 80 -231 62z"/>
<path d="M4278 1379 c-42 -10 -104 -46 -130 -76 -47 -52 -63 -177 -32 -251 36
-88 114 -136 220 -136 58 1 79 6 122 29 61 33 70 50 41 81 l-22 23 -34 -26
c-45 -34 -128 -43 -181 -19 -81 37 -118 155 -70 226 57 84 147 104 240 53 l49
-27 21 22 22 22 -23 24 c-47 49 -146 74 -223 55z"/>
<path d="M4955 1379 c-97 -23 -175 -122 -175 -224 0 -49 15 -114 30 -125 3 -3
15 -19 27 -35 51 -74 192 -102 279 -57 82 42 127 121 126 218 -1 109 -73 202
-174 223 -55 12 -58 12 -113 0z m135 -91 c57 -39 75 -72 75 -137 0 -45 -5 -66
-25 -94 -63 -92 -202 -89 -260 5 -27 45 -27 131 0 176 44 71 143 95 210 50z"/>
<path d="M6217 1380 c-16 -5 -40 -21 -54 -36 -22 -24 -25 -34 -20 -78 4 -49 8
-54 86 -126 61 -56 81 -81 81 -100 0 -54 -58 -67 -107 -26 -25 21 -33 23 -53
13 -36 -18 -35 -35 3 -71 79 -74 210 -44 237 53 14 50 -15 105 -91 171 -70 61
-92 91 -83 114 8 21 67 22 84 1 16 -19 35 -19 54 1 23 23 20 36 -17 61 -39 27
-82 35 -120 23z"/>
<path d="M1757 1373 c-4 -3 -7 -104 -7 -224 0 -212 0 -217 21 -222 50 -13 60
15 54 158 -4 90 0 125 14 125 7 0 101 -135 101 -145 0 -3 8 -14 18 -25 9 -11
26 -37 38 -58 23 -42 60 -64 92 -55 22 5 22 7 22 224 0 238 0 239 -55 225
l-25 -6 0 -140 c0 -77 -4 -140 -9 -140 -4 0 -50 63 -101 139 -50 77 -99 142
-107 145 -20 8 -48 8 -56 -1z"/>
<path d="M2522 1371 c-8 -5 -12 -21 -10 -37 2 -24 8 -30 33 -32 17 -2 34 -7
39 -12 4 -5 8 -72 7 -150 -1 -78 1 -157 5 -176 6 -31 9 -34 40 -34 l34 0 0
173 c0 94 4 177 8 184 4 6 23 13 42 15 30 3 35 7 38 32 2 16 -2 32 -10 37 -7
5 -58 9 -113 9 -55 0 -106 -4 -113 -9z"/>
<path d="M2848 1374 c-12 -12 -10 -444 2 -445 6 -1 17 -1 25 -1 8 0 20 0 25 1
6 0 10 37 10 85 0 47 4 88 10 91 10 6 31 -24 85 -124 23 -44 36 -56 55 -57 53
-3 53 7 3 105 l-47 93 38 32 c31 26 39 40 43 77 6 57 -15 102 -59 125 -33 17
-178 31 -190 18z m153 -84 c13 -8 19 -21 19 -45 0 -38 -20 -50 -76 -43 -25 3
-29 8 -32 36 -2 19 -1 40 2 48 6 16 59 19 87 4z"/>
<path d="M3207 1373 c-12 -11 -8 -311 4 -359 16 -62 69 -98 145 -98 64 0 100
22 129 80 17 34 20 60 20 209 l0 170 -40 0 -40 0 -5 -176 c-6 -198 -9 -209
-70 -209 -66 0 -70 13 -70 207 0 147 -2 172 -16 177 -21 8 -49 8 -57 -1z"/>
<path d="M4622 1374 c-9 -5 -11 -52 -6 -217 3 -117 7 -217 9 -224 2 -6 17 -10
32 -9 l28 3 0 224 0 224 -25 2 c-14 1 -31 -1 -38 -3z"/>
<path d="M5353 1374 c-10 -4 -13 -59 -13 -224 l0 -217 31 -7 c17 -3 35 -3 40
0 5 3 9 65 9 139 0 77 4 136 10 140 5 3 45 -49 89 -117 89 -138 114 -168 139
-168 41 1 43 7 40 236 l-3 219 -30 0 -30 0 -5 -137 c-5 -133 -12 -168 -30
-138 -5 8 -49 74 -97 145 -71 104 -93 130 -113 132 -14 1 -31 -1 -37 -3z"/>
<path d="M5827 1374 c-4 -4 -7 -105 -7 -225 0 -255 -15 -232 140 -227 l95 3 0
35 0 35 -75 3 c-44 2 -78 8 -82 15 -4 7 -8 30 -8 52 0 22 4 45 8 52 4 7 38 13
82 15 l75 3 0 35 0 35 -77 3 c-84 3 -96 13 -82 66 6 24 10 25 82 28 l77 3 0
35 0 35 -111 3 c-60 1 -113 -1 -117 -4z"/>
<path d="M1176 678 c-37 -48 -15 -61 29 -18 19 18 32 37 29 42 -10 17 -33 7
-58 -24z"/>
<path d="M192 673 c-22 -3 -47 -18 -72 -43 -69 -69 -62 -167 16 -226 42 -32
125 -36 172 -9 31 19 62 71 62 105 0 18 -7 20 -70 20 -63 0 -70 -2 -70 -20 0
-16 7 -20 34 -20 41 0 52 -12 30 -34 -36 -36 -99 -32 -140 9 -34 34 -34 104 1
139 36 36 78 42 125 17 33 -17 40 -18 50 -6 33 40 -48 79 -138 68z"/>
<path d="M981 666 c-16 -20 -3 -46 24 -46 13 0 26 7 29 16 7 19 -10 44 -29 44
-7 0 -18 -6 -24 -14z"/>
<path d="M3853 673 c-17 -6 -16 -38 0 -52 19 -15 50 9 45 35 -3 19 -23 27 -45
17z"/>
<path d="M4332 671 c-23 -14 -10 -46 18 -46 20 0 25 5 25 25 0 26 -20 36 -43
21z"/>
<path d="M5430 665 c-11 -13 -11 -19 3 -32 21 -21 49 -9 45 19 -4 28 -30 35
-48 13z"/>
<path d="M5945 668 c-2 -7 -6 -29 -7 -48 -2 -25 -7 -34 -18 -32 -64 15 -77 13
-108 -13 -56 -47 -59 -124 -6 -172 22 -20 35 -23 99 -21 88 1 85 -6 85 160 0
107 -2 118 -20 128 -15 8 -21 8 -25 -2z m-25 -138 c11 -11 20 -31 20 -45 0
-29 -32 -65 -58 -65 -33 0 -62 29 -62 62 0 61 59 89 100 48z"/>
<path d="M6716 665 c-13 -36 24 -61 52 -33 7 7 8 17 1 30 -12 22 -45 24 -53 3z"/>
<path d="M7097 673 c-4 -3 -7 -71 -7 -150 0 -136 1 -143 20 -143 19 0 20 7 20
150 0 118 -3 150 -13 150 -8 0 -17 -3 -20 -7z"/>
<path d="M870 635 c0 -22 -6 -38 -15 -41 -19 -8 -19 -28 0 -44 10 -8 15 -36
17 -88 3 -69 5 -77 23 -77 18 0 20 8 23 75 2 63 6 78 24 91 l21 16 -21 19
c-14 12 -22 30 -22 51 0 29 -3 33 -25 33 -22 0 -25 -4 -25 -35z"/>
<path d="M3230 635 c0 -22 -6 -38 -15 -41 -8 -4 -15 -14 -15 -24 0 -10 7 -20
15 -24 12 -4 15 -24 15 -86 0 -79 0 -80 25 -80 25 0 25 1 25 79 0 58 4 82 15
91 8 7 15 18 15 25 0 7 -7 15 -15 19 -9 3 -15 19 -15 41 0 31 -3 35 -25 35
-22 0 -25 -4 -25 -35z"/>
<path d="M4947 663 c-4 -3 -7 -18 -7 -31 0 -14 -8 -34 -17 -45 -17 -18 -17
-20 -1 -31 13 -10 18 -31 20 -92 3 -73 5 -79 26 -82 21 -3 22 -1 22 78 0 62 3
82 15 86 8 4 15 14 15 24 0 10 -7 23 -15 30 -8 7 -15 25 -15 41 0 21 -5 29
-18 29 -10 0 -22 -3 -25 -7z"/>
<path d="M6480 644 c0 -15 -8 -36 -17 -46 -15 -17 -15 -21 -2 -46 10 -17 15
-47 13 -82 -3 -74 3 -92 29 -88 20 3 22 10 25 86 2 64 6 82 17 82 19 0 19 36
1 43 -8 3 -16 21 -18 39 -2 25 -8 34 -25 36 -19 3 -23 -1 -23 -24z"/>
<path d="M474 584 c-40 -19 -59 -55 -58 -107 2 -59 46 -97 113 -97 34 0 53 5
64 18 24 26 12 33 -47 26 -40 -5 -55 -3 -65 10 -25 30 -8 40 71 41 42 0 79 3
83 6 12 13 -26 85 -54 102 -36 21 -66 21 -107 1z m95 -47 c16 -20 4 -27 -44
-27 -23 0 -45 3 -48 7 -13 13 16 33 48 33 18 0 38 -6 44 -13z"/>
<path d="M702 584 c-26 -18 -30 -65 -6 -89 9 -8 29 -22 45 -30 16 -9 29 -20
29 -26 0 -16 -30 -22 -55 -11 -21 10 -26 8 -35 -8 -13 -24 12 -40 62 -40 83 0
98 85 23 126 -44 23 -48 48 -7 39 20 -4 33 -1 41 9 10 12 7 17 -18 30 -38 20
-51 20 -79 0z"/>
<path d="M1134 586 c-30 -13 -64 -66 -64 -101 0 -25 27 -72 52 -89 12 -9 41
-16 65 -16 108 0 145 136 54 197 -39 26 -63 28 -107 9z m91 -56 c36 -40 7
-110 -46 -110 -25 0 -59 39 -59 67 0 53 70 82 105 43z"/>
<path d="M1430 591 c-8 -6 -27 -7 -43 -4 -17 3 -32 1 -36 -5 -4 -7 -7 -53 -6
-104 1 -88 2 -93 23 -96 20 -3 22 1 22 52 0 64 13 104 36 113 34 13 49 -11 54
-88 5 -67 7 -74 28 -77 21 -3 22 -1 22 85 0 94 -3 104 -37 122 -26 13 -43 14
-63 2z"/>
<path d="M1755 583 c-16 -9 -35 -23 -42 -32 -32 -44 -18 -122 28 -155 44 -30
149 -16 149 20 0 13 -8 15 -49 9 -53 -7 -91 5 -91 30 0 16 10 18 84 16 69 -2
88 6 81 32 -12 42 -27 64 -55 80 -35 21 -66 21 -105 0z m92 -46 c21 -16 4 -27
-43 -27 -33 0 -44 4 -44 15 0 30 55 38 87 12z"/>
<path d="M2056 593 c-4 -4 -26 -7 -49 -8 l-42 0 0 -100 c0 -94 1 -100 21 -103
20 -3 22 3 26 68 6 82 22 106 62 96 24 -6 25 -10 28 -84 3 -71 5 -77 26 -80
21 -3 22 -1 22 87 0 85 -1 91 -26 110 -27 21 -55 27 -68 14z"/>
<path d="M2411 591 c-7 -5 -31 -6 -53 -4 l-39 6 3 -104 c3 -97 4 -104 24 -107
20 -3 22 3 26 67 5 73 18 101 47 101 30 0 41 -23 41 -81 0 -70 7 -89 31 -89
16 0 19 8 19 58 0 64 16 105 43 110 35 7 47 -17 47 -95 0 -71 1 -74 23 -71 21
3 22 8 25 89 3 84 2 88 -24 108 -32 25 -45 26 -84 6 -27 -14 -33 -14 -60 0
-33 17 -49 18 -69 6z"/>
<path d="M2748 583 c-56 -36 -66 -122 -19 -172 28 -30 31 -31 107 -28 l79 2 0
100 0 100 -40 2 c-22 1 -53 5 -70 8 -19 3 -40 -1 -57 -12z m111 -65 c33 -59
-28 -121 -83 -84 -31 20 -35 69 -9 98 25 28 73 20 92 -14z"/>
<path d="M3065 591 c-11 -5 -35 -6 -52 -3 l-33 5 0 -107 c0 -106 0 -107 23
-104 20 3 22 10 27 73 6 81 12 95 45 95 33 0 45 -27 45 -104 0 -59 2 -66 20
-66 26 0 34 33 26 117 -8 90 -39 118 -101 94z"/>
<path d="M3393 584 c-62 -31 -75 -124 -24 -175 24 -24 38 -29 76 -29 53 0 85
14 85 36 0 13 -8 15 -49 9 -53 -7 -91 5 -91 30 0 15 34 21 95 16 40 -3 75 7
75 20 0 31 -36 83 -66 95 -42 18 -61 17 -101 -2z m96 -43 c24 -15 2 -31 -43
-31 -49 0 -61 7 -45 27 13 15 67 17 88 4z"/>
<path d="M3691 591 c-7 -5 -31 -6 -52 -4 l-39 6 0 -107 0 -107 28 3 c26 3 27
5 30 75 3 79 16 99 57 89 23 -6 25 -10 25 -70 0 -77 6 -96 31 -96 17 0 19 8
19 88 0 93 -3 103 -37 121 -26 13 -43 14 -62 2z"/>
<path d="M3857 593 c-3 -5 -7 -53 -8 -108 -3 -97 -2 -100 19 -103 22 -3 23 -2
20 104 -2 70 -7 109 -15 111 -6 2 -13 0 -16 -4z"/>
<path d="M4035 591 c-11 -5 -35 -6 -52 -3 l-33 5 0 -107 c0 -106 0 -107 23
-104 20 3 22 10 27 73 6 82 12 95 46 95 31 0 44 -32 44 -111 0 -57 1 -60 23
-57 20 3 22 10 27 75 5 79 15 96 51 91 28 -4 37 -30 38 -110 1 -51 3 -58 21
-58 13 0 22 9 26 26 9 35 -3 153 -16 169 -19 23 -59 26 -95 9 -31 -14 -36 -14
-57 0 -24 17 -42 19 -73 7z"/>
<path d="M4335 590 c-4 -6 -7 -54 -7 -108 0 -95 1 -97 24 -97 22 0 23 3 26 94
2 60 -1 98 -9 107 -14 17 -25 18 -34 4z"/>
<path d="M4474 581 c-59 -36 -68 -126 -18 -176 20 -20 35 -25 72 -25 49 0 97
23 86 41 -4 7 -26 8 -56 4 -39 -6 -53 -4 -68 10 -29 26 -15 35 55 35 78 0 95
6 95 34 0 45 -60 96 -112 96 -13 0 -37 -9 -54 -19z m104 -53 c3 -15 -4 -18
-47 -18 -37 0 -51 4 -51 14 0 19 17 25 60 23 24 -1 36 -7 38 -19z"/>
<path d="M4786 593 c-4 -5 -26 -8 -49 -8 l-42 0 -3 -80 c-4 -99 2 -125 28
-125 18 0 20 7 20 63 0 68 18 107 50 107 27 0 34 -17 40 -95 5 -63 7 -70 28
-73 21 -3 22 -1 22 83 0 78 -2 88 -25 110 -24 25 -54 32 -69 18z"/>
<path d="M5106 581 c-94 -62 -61 -200 47 -201 93 0 143 80 101 161 -15 30 -65
59 -101 59 -10 0 -31 -9 -47 -19z m94 -51 c11 -11 20 -31 20 -45 0 -29 -32
-65 -58 -65 -34 0 -62 29 -62 65 0 57 60 85 100 45z"/>
<path d="M5443 593 c-9 -3 -13 -35 -13 -110 0 -103 0 -104 23 -101 21 3 22 8
25 99 3 97 -5 123 -35 112z"/>
<path d="M5627 594 c-3 -3 -25 -7 -49 -8 l-43 -1 0 -100 c0 -96 1 -100 23
-103 21 -3 22 0 22 60 0 69 18 108 50 108 28 0 40 -31 40 -105 0 -63 1 -66 23
-63 20 3 22 9 25 86 3 76 1 84 -22 107 -24 24 -55 32 -69 19z"/>
<path d="M6306 577 c-40 -40 -35 -54 44 -116 20 -16 23 -22 12 -33 -10 -10
-16 -10 -34 1 -17 11 -23 10 -36 -3 -25 -25 1 -46 58 -46 39 0 49 4 59 24 21
38 10 68 -37 99 -46 31 -47 52 -1 42 22 -5 31 -2 35 10 9 21 -4 33 -43 41 -26
5 -37 1 -57 -19z"/>
<path d="M6657 593 c-4 -4 -23 -6 -43 -5 l-35 3 3 -103 c3 -95 4 -103 23 -103
18 0 21 8 25 77 3 42 7 78 10 80 3 2 14 8 25 14 11 6 20 17 20 24 0 16 -18 24
-28 13z"/>
<path d="M6733 593 c-9 -3 -13 -35 -13 -110 0 -103 0 -104 23 -101 21 3 22 8
25 104 3 103 -2 118 -35 107z"/>
<path d="M6858 581 c-54 -43 -60 -128 -12 -176 22 -22 32 -24 104 -23 l80 2 0
103 0 103 -37 -1 c-21 -1 -54 2 -73 6 -28 5 -41 2 -62 -14z m104 -48 c26 -23
24 -78 -4 -97 -30 -22 -54 -20 -79 5 -16 16 -20 28 -15 53 11 53 60 73 98 39z"/>
<path d="M982 488 c3 -95 4 -103 23 -103 19 0 20 8 23 103 l3 102 -26 0 -26 0
3 -102z"/>
<path d="M6045 570 c-11 -36 5 -138 27 -165 16 -21 28 -25 68 -25 71 0 90 27
90 132 0 77 -1 79 -22 76 -21 -3 -23 -10 -28 -77 -4 -56 -9 -77 -22 -85 -35
-22 -53 4 -58 85 -4 66 -7 74 -27 77 -15 2 -23 -3 -28 -18z"/>
</g>
</svg>
